<?xml version="1.0" standalone="no"?><!DOCTYPE svg PUBLIC "-//W3C//DTD SVG 1.1//EN" "http://www.w3.org/Graphics/SVG/1.1/DTD/svg11.dtd"><svg t="1639139104082" class="icon" viewBox="0 0 1024 1024" version="1.1" xmlns="http://www.w3.org/2000/svg" p-id="10149" xmlns:xlink="http://www.w3.org/1999/xlink" width="200" height="200"><defs><style type="text/css"></style></defs><path d="M518.5 150.3c133.4 0 246 114 246 249 0 90.3-50.3 209.8-145.3 345.2-36.9 52-72.8 97.5-100.3 129.7-27.9-32.4-65.5-78.2-101.4-129.8-93.5-131.7-145-254.2-145-345.1 0-137.3 110.3-249 246-249m0-64.8c-173.1 0-310.9 141.9-310.9 313.8 0 131.9 84.8 280.8 157.2 382.7 55.3 79.5 114.2 145.4 140.7 174.9 3.5 3.5 6.5 6.5 13 6.5 3.5 0 10-3.5 13-6.5 29.4-29.4 84.8-96 140.7-174.9C744 679.5 829.4 531.2 829.4 399.3c0-171.9-140.7-313.8-310.9-313.8z" fill="#8a8a8a" p-id="10150"></path><path d="M518.5 269.2c68.8 0 124.8 56.8 124.8 126.5 0 69.8-56 126.5-124.8 126.5s-124.8-56.8-124.8-126.5 56-126.5 124.8-126.5m0-64.8c-104.8 0-189.6 86-189.6 191.3 0 105.4 84.8 191.3 189.6 191.3s189.6-86 189.6-191.3c0-105.3-84.8-191.3-189.6-191.3z" fill="#8a8a8a" p-id="10151"></path></svg>