<?xml version="1.0" standalone="no"?><!DOCTYPE svg PUBLIC "-//W3C//DTD SVG 1.1//EN" "http://www.w3.org/Graphics/SVG/1.1/DTD/svg11.dtd"><svg t="1639051905274" class="icon" viewBox="0 0 1024 1024" version="1.1" xmlns="http://www.w3.org/2000/svg" p-id="2333" xmlns:xlink="http://www.w3.org/1999/xlink" width="200" height="200"><defs><style type="text/css"></style></defs><path d="M866.783524 192.308461l-37.390752 39.964431c33.654502 55.787014 53.021302 121.165808 53.021302 191.070815 0 94.347844-35.271373 180.456538-93.348462 245.858447l0.68397-0.012545-9.771168 9.881113c-3.035783 3.1805-6.127576 6.307064-9.274391 9.378508L631.017486 829.713124c0.064604-0.019263 0.128318-0.039513 0.191934-0.057887L512 949.559197 243.000077 678.099294l0.09651-0.000988c-62.919801-66.390721-101.518268-156.062796-101.518268-254.7546 0-204.580999 165.838804-370.415951 370.415951-370.415951 71.049106 0 137.420565 20.005429 193.798891 54.683416l36.807046-39.339335C676.254827 25.093024 597.058043 0 511.994172 0 278.20003 0 88.667851 189.541761 88.667851 423.343706c0 109.117012 41.295722 208.57764 109.094884 283.64176 0.916405 1.284963 1.959252 2.510063 3.141975 3.653174l3.632034 3.667695c4.47129 4.723976 9.044821 9.349565 13.728296 13.863332l243.990766 246.398589c0.545971 0.526708 1.114168 1.019633 1.693922 1.492307l47.946154 47.939437 45.578832-45.578832c1.289803-0.867211 2.522608-1.849307 3.672535-2.959622l261.351097-263.929616c1.469192-1.417134 2.725211-2.961499 3.783468-4.591805 67.774071-75.058292 109.050432-174.500645 109.050432-283.594443C935.331161 338.100446 910.132045 258.743535 866.783524 192.308461zM370.878945 405.70471c0 77.935925 63.179303 141.10851 141.10851 141.10851 77.935925 0 141.11908-63.172586 141.11908-141.10851 0-77.93306-63.183155-141.112363-141.11908-141.112363C434.058346 264.592348 370.878945 327.772638 370.878945 405.70471zM600.197153 405.70471c0 48.705396-39.493732 88.191325-88.201993 88.191325-48.712114 0-88.19903-39.486916-88.19903-88.191325 0-48.712114 39.486916-88.195177 88.19903-88.195177C560.703421 317.509533 600.197153 356.992597 600.197153 405.70471z" p-id="2334" fill="#000000"></path></svg>